<svg width="213" height="104" viewBox="0 0 213 104" fill="none" xmlns="http://www.w3.org/2000/svg">
<path d="M92.553 89C92.385 90.288 91.657 91.296 90.369 92.024C89.207 92.668 87.758 92.99 86.022 92.99C83.698 92.99 81.948 92.325 80.772 90.995C79.904 90.001 79.47 88.783 79.47 87.341C79.47 86.235 79.729 85.269 80.247 84.443L82.767 83.918C82.207 84.87 81.927 85.871 81.927 86.921C81.927 88.097 82.277 89 82.977 89.63C83.677 90.274 84.692 90.596 86.022 90.596C88.094 90.596 89.354 90.064 89.802 89H87.786L89.109 86.459H92.616V89H92.553ZM84.615 97.631C84.195 97.631 83.859 97.498 83.607 97.232C83.355 96.98 83.229 96.644 83.229 96.224C83.229 95.818 83.355 95.489 83.607 95.237C83.859 94.985 84.195 94.859 84.615 94.859C85.035 94.859 85.364 94.978 85.602 95.216C85.854 95.468 85.98 95.804 85.98 96.224C85.98 97.162 85.525 97.631 84.615 97.631ZM87.849 97.631C87.429 97.631 87.093 97.505 86.841 97.253C86.589 97.001 86.463 96.658 86.463 96.224C86.463 95.314 86.925 94.859 87.849 94.859C88.269 94.859 88.598 94.978 88.836 95.216C89.088 95.468 89.214 95.804 89.214 96.224C89.214 97.162 88.759 97.631 87.849 97.631ZM93.5359 77.828C93.1159 77.828 92.7799 77.702 92.5279 77.45C92.2759 77.198 92.1499 76.855 92.1499 76.421C92.1499 76.015 92.2759 75.686 92.5279 75.434C92.7799 75.182 93.1159 75.056 93.5359 75.056C93.9559 75.056 94.2849 75.182 94.5229 75.434C94.7749 75.672 94.9009 76.001 94.9009 76.421C94.9009 77.359 94.4459 77.828 93.5359 77.828ZM96.7489 77.828C96.3289 77.828 95.9929 77.702 95.7409 77.45C95.4889 77.184 95.3629 76.841 95.3629 76.421C95.3629 76.015 95.4889 75.686 95.7409 75.434C96.0069 75.182 96.3429 75.056 96.7489 75.056C97.1689 75.056 97.4979 75.182 97.7359 75.434C97.9879 75.672 98.1139 76.001 98.1139 76.421C98.1139 77.359 97.6589 77.828 96.7489 77.828ZM99.0169 86.459H100.907V89H98.7649C97.7429 89 96.8959 88.727 96.2239 88.181C95.5519 88.727 94.7049 89 93.6829 89H91.5409V86.459H93.4309C93.9629 86.459 94.3409 86.347 94.5649 86.123C94.7889 85.885 94.9009 85.493 94.9009 84.947V81.062L97.5469 79.676V84.947C97.5469 85.493 97.6589 85.885 97.8829 86.123C98.1069 86.347 98.4849 86.459 99.0169 86.459ZM99.6415 89V86.459H101.531C102.063 86.459 102.441 86.347 102.665 86.123C102.889 85.885 103.001 85.493 103.001 84.947V81.062L105.647 79.676V85.073C105.647 86.347 105.255 87.341 104.471 88.055C103.785 88.685 102.889 89 101.783 89H99.6415ZM100.775 93.683C100.355 93.683 100.019 93.557 99.7675 93.305C99.5155 93.053 99.3895 92.71 99.3895 92.276C99.3895 91.366 99.8515 90.911 100.775 90.911C101.195 90.911 101.524 91.03 101.762 91.268C102.014 91.52 102.14 91.856 102.14 92.276C102.14 93.214 101.685 93.683 100.775 93.683ZM104.009 93.683C103.589 93.683 103.253 93.557 103.001 93.305C102.749 93.053 102.623 92.71 102.623 92.276C102.623 91.366 103.085 90.911 104.009 90.911C104.429 90.911 104.758 91.03 104.996 91.268C105.248 91.52 105.374 91.856 105.374 92.276C105.374 93.214 104.919 93.683 104.009 93.683ZM107.741 89L109.064 86.459H112.382C113.096 86.459 113.453 86.046 113.453 85.22C113.453 83.68 112.711 82.497 111.227 81.671L112.529 79.424C114.713 80.698 115.889 82.427 116.057 84.611C116.113 85.311 116.267 85.794 116.519 86.06C116.785 86.326 117.233 86.459 117.863 86.459H119.459V89H117.716C116.68 89 115.805 88.713 115.091 88.139C114.573 88.713 113.831 89 112.865 89H107.741ZM125.425 86.459H127.315V89H125.173C124.081 89 123.192 88.692 122.506 88.076C121.736 88.692 120.791 89 119.671 89H118.201V86.459H119.524C120.168 86.459 120.623 86.319 120.889 86.039C121.169 85.759 121.309 85.283 121.309 84.611V76.862L123.934 75.455V79.697L123.955 79.676V84.947C123.955 85.493 124.067 85.885 124.291 86.123C124.515 86.347 124.893 86.459 125.425 86.459ZM126.056 89V86.459H127.946C128.478 86.459 128.856 86.347 129.08 86.123C129.304 85.885 129.416 85.493 129.416 84.947V81.062L132.062 79.676V85.073C132.062 86.347 131.67 87.341 130.886 88.055C130.2 88.685 129.304 89 128.198 89H126.056ZM130.508 93.683C130.088 93.683 129.752 93.557 129.5 93.305C129.248 93.053 129.122 92.71 129.122 92.276C129.122 91.87 129.248 91.541 129.5 91.289C129.752 91.037 130.088 90.911 130.508 90.911C130.928 90.911 131.257 91.03 131.495 91.268C131.747 91.52 131.873 91.856 131.873 92.276C131.873 93.214 131.418 93.683 130.508 93.683Z" fill="white"/>
<path d="M89.0481 66.8282C89.0481 67.246 88.6941 67.5802 88.2516 67.5802H81.8093C81.3668 67.5802 81.0128 67.246 81.0128 66.8282V58.6561C81.0128 58.5726 81.0305 58.489 81.0571 58.4055L81.8535 56.2998C81.8801 56.2162 81.8978 56.1327 81.8978 56.0491V26.4275C81.8978 26.3188 81.8712 26.2102 81.827 26.1183L81.0836 24.5892C81.0394 24.4805 81.0128 24.3803 81.0128 24.2716V15.9408C81.0128 15.523 81.3668 15.1888 81.8093 15.1888H88.2693C88.7118 15.1888 89.0658 15.523 89.0658 15.9408C89.0658 16.3586 89.4197 16.6928 89.8622 16.6928H122.516C122.959 16.6928 123.313 16.3586 123.313 15.9408C123.313 15.523 123.667 15.1888 124.109 15.1888H130.038C130.481 15.1888 130.835 15.523 130.835 15.9408V24.0126C130.835 24.1547 130.79 24.2883 130.72 24.4053L129.631 26.0765C129.552 26.1935 129.516 26.3355 129.516 26.4692V56.1494C129.516 56.2664 129.552 56.3917 129.605 56.5003L130.755 58.5726C130.817 58.6812 130.844 58.7982 130.844 58.9235V66.8282C130.844 67.246 130.49 67.5802 130.047 67.5802H124.03C123.587 67.5802 123.233 67.246 123.233 66.8282" stroke="white" stroke-width="1.2" stroke-miterlimit="10" stroke-linecap="round" stroke-linejoin="round"/>
<path d="M127.649 9.33966V12.8491" stroke="white" stroke-width="1.2" stroke-miterlimit="10" stroke-linecap="round" stroke-linejoin="round"/>
<path d="M127.649 12.8491H122.224H83.4907V9.42322" stroke="white" stroke-width="1.2" stroke-miterlimit="10" stroke-linecap="round" stroke-linejoin="round"/>
<path d="M125.162 10.3424H86.1455L85.0747 7H126.233L125.162 10.3424Z" stroke="white" stroke-width="1.2" stroke-miterlimit="10" stroke-linecap="round" stroke-linejoin="round"/>
<path d="M89.8179 63.4859V36.2206C89.8179 28.4413 97.3045 22.1326 106.455 22.1326C115.605 22.1326 123.092 28.4413 123.092 36.2206V63.4859" stroke="white" stroke-width="1.2" stroke-miterlimit="10" stroke-linecap="round" stroke-linejoin="round"/>
<path d="M93.0922 59.3079V37.5241C93.0922 31.3073 99.1009 26.2687 106.41 26.2687C113.72 26.2687 119.729 31.3073 119.729 37.5241V59.3079" stroke="white" stroke-width="1.2" stroke-miterlimit="10" stroke-linecap="round" stroke-linejoin="round"/>
<path d="M124.375 18.7818H128.091V22.1242" stroke="white" stroke-width="1.2" stroke-miterlimit="10" stroke-linecap="round" stroke-linejoin="round"/>
<path d="M87.2074 18.7818H83.4907V22.1242" stroke="white" stroke-width="1.2" stroke-miterlimit="10" stroke-linecap="round" stroke-linejoin="round"/>
</svg>
